<svg id="Capa_1" enable-background="new 0 0 512.005 512.005" height="512" viewBox="0 0 512.005 512.005" width="512" xmlns="http://www.w3.org/2000/svg"><g><g><path d="m328.586 428.363-14.532-58.127c-2.009-8.037 2.877-16.181 10.914-18.19 8.041-2.011 16.181 2.877 18.19 10.914l14.532 58.127c2.009 8.037-2.877 16.181-10.914 18.19-7.987 1.997-16.168-2.829-18.19-10.914z" fill="#463f3f"/></g><g><path d="m419.668 393.723-33.283-49.925c-4.595-6.893-2.732-16.206 4.161-20.801s16.206-2.733 20.801 4.16l33.283 49.925c4.595 6.893 2.732 16.206-4.161 20.801-6.861 4.574-16.185 2.763-20.801-4.16z" fill="#463f3f"/></g><g><path d="m271.005 376.186v60c0 8.28-6.71 14.99-14.99 15h-.01c-8.29 0-15-6.72-14.99-15v-60c-.01-8.29 6.7-15 14.99-15h.01c8.28.01 14.99 6.71 14.99 15z" fill="#5b5555"/></g><path d="m271.005 376.186v60c0 8.28-6.71 14.99-14.99 15v-90c8.28.01 14.99 6.71 14.99 15z" fill="#463f3f"/><g><path d="m165.501 438.19c-8.037-2.009-12.923-10.153-10.914-18.19l14.552-58.209c2.009-8.037 10.149-12.923 18.19-10.914 8.037 2.009 12.923 10.153 10.914 18.19l-14.552 58.209c-2.015 8.061-10.175 12.916-18.19 10.914z" fill="#5b5555"/></g><g><path d="m71.645 397.72c-6.893-4.595-8.756-13.908-4.161-20.801l33.538-50.307c4.596-6.893 13.909-8.756 20.801-4.16 6.893 4.595 8.756 13.908 4.161 20.801l-33.538 50.307c-4.61 6.914-13.929 8.742-20.801 4.16z" fill="#5b5555"/></g><g><path d="m510.415 189.476c-59.06-118.12-179.2-135.58-254.4-126.67-10.9 1.29-20.87 3.13-29.56 5.3l-215.07 53.52c-8.58 2.13-13.45 11.19-10.54 19.51l21.48 61.44c7.86 23.4 33.2 36.24 56.88 28.35.14-.05.28-.1.42-.15l160.7-58.89c5.18-1.9 10.42-3.63 15.69-5.18 78.7-23.19 166.2-7.87 231.99 41.48 5.56 4.17 13.27 3.97 18.61-.49s6.92-12 3.8-18.22z" fill="#766e6e"/></g><path d="m506.615 207.696c-5.34 4.46-13.05 4.66-18.61.49-65.79-49.35-153.29-64.67-231.99-41.48v-103.9c75.2-8.91 195.34 8.55 254.4 126.67 3.12 6.22 1.54 13.76-3.8 18.22z" fill="#5b5555"/><g><path d="m475.005 298.186-49.75 37.31c-50.59 37.942-114.619 57.189-169.24 55.67-90.43-.65-141.91-42.65-186.72-61.57-7.41-3.7-10.41-12.71-6.71-20.12 3.71-7.41 12.72-10.41 20.13-6.71 46.3 19.72 91.83 57.74 173.3 58.4 107.74 2.996 173.318-70.428 200.99-86.98 6.63-4.98 16.03-3.63 21 3 4.97 6.62 3.63 16.03-3 21z" fill="#766e6e"/></g><path d="m475.005 298.186-49.75 37.31c-50.59 37.942-114.619 57.189-169.24 55.67v-30c107.74 2.996 173.318-70.428 200.99-86.98 6.63-4.98 16.03-3.63 21 3 4.97 6.62 3.63 16.03-3 21z" fill="#5b5555"/></g></svg>