<svg id="Capa_1" enable-background="new 0 0 512.12 512.12" height="512" viewBox="0 0 512.12 512.12" width="512" xmlns="http://www.w3.org/2000/svg"><g><path d="m490.74 305.139-46.72-23.51c10.55 31.52 13.19 69.44-16.93 112.94l-43-28.9s6.25 55.84-32.08 87.69l-36.44-34.27c0 60.96-59.51 92.97-59.51 92.97s-59.51-32.01-59.51-92.97l-36.44 34.27c-38.33-31.85-32.08-87.69-32.08-87.69l-43 28.9c-30.12-43.5-27.48-81.42-16.93-112.94l-46.72 23.51s-48.06-90.76 42.63-155.39l49.52-19.74 22.95 46.59c14.117 28.525 43.816 47.524 76.59 47.52 13.373.59 27.885-6.57 42.99-6.32 13.968-.512 27.436 6.556 42.99 6.32 32.48 0 62.16-18.42 76.59-47.52l23.28-46.59 49.19 19.74c90.69 64.63 42.63 155.39 42.63 155.39z" fill="#36404f"/><path d="m490.74 305.139-46.72-23.51c10.55 31.52 13.19 69.44-16.93 112.94l-43-28.9s6.25 55.84-32.08 87.69l-36.44-34.27c0 60.96-59.51 92.97-59.51 92.97v-294.26c13.968-.512 27.436 6.556 42.99 6.32 32.48 0 62.16-18.42 76.59-47.52l23.28-46.59 49.19 19.74c90.69 64.63 42.63 155.39 42.63 155.39z" fill="#1f223a"/><path d="m512.12 72.659s0 62.77-84.74 83.77c-83.12 20.59-171.32-67.16-171.32-67.16s-88.2 87.75-171.32 67.16c-84.74-21-84.74-83.77-84.74-83.77 59.18 18.69 85.12-10.18 139.43-47.77 75.08-51.96 116.63-6.23 116.63-6.23s41.55-45.73 116.63 6.23c54.31 37.59 80.25 66.46 139.43 47.77z" fill="#455468"/><path d="m512.12 72.659s0 62.77-84.74 83.77c-83.12 20.59-171.32-67.16-171.32-67.16v-70.61s41.55-45.73 116.63 6.23c54.31 37.59 80.25 66.46 139.43 47.77z" fill="#36404f"/></g></svg>