<svg id="Capa_1" enable-background="new 0 0 498.322 498.322" height="512" viewBox="0 0 498.322 498.322" width="512" xmlns="http://www.w3.org/2000/svg"><g><path d="m484.63 9.702c-15.57-6.241-32.563-9.686-50.36-9.702-74.778-.069-135.954 62.516-135.954 137.294v69.139l-32.747 61.8c-1.797 3.39-2.736 7.169-2.736 11.006v5.099c0 9.345 5.536 17.803 14.1 21.542l26.535 11.586v47.518c0 23.535 19.778 42.234 43.276 40.916l68.98-3.87c6.794-.381 12.512 5.025 12.512 11.829v73.608c0 5.995 4.86 10.855 10.855 10.855h47.542c5.995 0 10.855-4.86 10.855-10.855v-458.592c.001-8.407-5.054-16.045-12.858-19.173z" fill="#eb9c8d"/><path d="m463.709 498.322h-24.617c-5.995 0-10.855-4.86-10.855-10.855v-73.608c0-6.805-5.718-12.211-12.512-11.83l-68.981 3.87c-23.498 1.318-43.276-17.381-43.276-40.916v-47.519l-26.535-11.585c-8.564-3.74-14.1-12.197-14.1-21.542v-5.098c0-3.837.939-7.616 2.736-11.006l32.747-61.799v-69.139c0-56.423 34.837-105.913 84.059-126.775-29.657 25.365-48.587 63.188-48.587 104.773v69.139l-32.747 61.8c-1.796 3.39-2.736 7.169-2.736 11.006v5.099c0 9.345 5.536 17.803 14.1 21.542l13.48 5.886c7.93 3.462 13.055 11.293 13.055 19.945v33.273c0 23.535 19.778 42.234 43.276 40.916l57.574-2.734c13.022-.618 23.918 9.772 23.918 22.809v94.348z" fill="#d78878"/><path d="m70.085 487.329v-73.47c0-6.804 5.718-12.211 12.512-11.829l68.98 3.87c23.498 1.318 43.276-17.381 43.276-40.916v-47.518l26.535-11.586c8.564-3.739 14.1-12.197 14.1-21.542v-5.099c0-3.837-.939-7.616-2.736-11.006l-32.747-61.8v-69.139c.001-74.778-61.175-137.363-135.953-137.294-20.024.018-39.029 4.376-56.137 12.175-4.328 1.973-7.082 6.32-7.082 11.077v464.077c0 6.071 4.921 10.992 10.992 10.992h47.267c6.072.001 10.993-4.921 10.993-10.992z" fill="#ffdfcf"/><path d="m43.938 73.207c0-22.168 15.646-41.35 37.41-45.562 8.355-1.617 16.983-2.468 25.81-2.476 15.632-.015 30.679 2.718 44.687 7.718-23.729-20.454-54.409-32.918-87.793-32.887-20.04.019-39.06 4.383-56.178 12.194-4.313 1.968-7.041 6.318-7.041 11.058v464.077c0 6.071 4.921 10.992 10.992 10.992h32.113z" fill="#ffcebf"/></g></svg>