<svg id="Layer_1" enable-background="new 0 0 512 512" height="512" viewBox="0 0 512 512" width="512" xmlns="http://www.w3.org/2000/svg"><g><g><path clip-rule="evenodd" d="m262.449 187.863c-42.025 54.338-181.013 98.748-187.857 195.757-1.93 27.374 3.552 47.191 24.533 75.607 3.725 5.045 16.316 14.208 30.356 16.465 26.145 22.139 56.589 37.493 78.464 36.236 29.391 1.667 72.089-26.584 101.451-61.065 10.002-11.728 38.667-22.543 44.546-34.767 13.248-27.667 22.952-36.359 22.952-60.106.263-4.738.002-35.291-7.332-69.949-22.089-31.309-49.363-22.819-67.641-63.529z" fill="#ffeee6" fill-rule="evenodd"/></g><g><path clip-rule="evenodd" d="m261.347 232.981c-10.119 13.073-24.332 23.367-40.153 32.785-49.863 29.714-115.869 50.888-121.074 124.529-.468 6.551-.848 12.663-.994 18.396 22.372-67.558 147.541-107.829 150.232-123.915 19.653 16.524 47.435 30.299 70.013 28.339-.029 33.34.059 40.856-.234 45.565 0 59.603-42.113 114.088-88.466 149.739 26.087-8.511 56.297-31.235 78.728-57.556 10.002-11.728 18.424-24.186 24.303-36.411 13.248-27.667 20.033-56.708 20.033-80.455.263-4.738.205-12.254.205-45.594-34.395 3.012-74.315-14.711-92.593-55.422z" fill="#ffdfcf" fill-rule="evenodd"/></g><g><path d="m148.578 337.449c-8.613 0-17.227-.916-23.938-2.748-4.054-1.107-6.445-5.292-5.338-9.348 1.107-4.055 5.294-6.444 9.348-5.338 10.803 2.949 29.054 2.949 39.857 0 4.052-1.107 8.241 1.281 9.348 5.338 1.107 4.056-1.283 8.241-5.338 9.348-6.712 1.832-15.325 2.748-23.939 2.748z" fill="#365e7d"/></g><g><path clip-rule="evenodd" d="m215.52 41.129c-109.757 0-199.539 89.785-199.539 198.901v59.281 27.023c0 143.831 135.668 171.761 113.5 149.358-2.076-1.755-4.124-3.539-6.112-5.381-4.679-3.802-9.622-7.487-12.02-11.172-.468-.731-.936-1.462-1.404-2.193-9.3-15.208-11.259-30.006-10.821-48.256.146-5.732.526-11.845.994-18.396 5.206-73.641 71.212-94.815 121.074-124.529 15.822-9.417 30.035-19.712 40.153-32.785 18.278 40.71 58.198 58.433 92.59 55.421 0 33.34.058 40.856-.205 45.594 0 23.748-6.785 52.789-20.033 80.455-5.878 12.225-14.301 24.683-24.303 36.411-3.714 14.038-8.657 36.937 20.705 27.813 76.885-23.865 84.928-86.334 84.928-172.287v-47.729c-4.913-42.582-1.667-83.965-47.582-147.077-36.67-42.99-91.271-70.452-151.925-70.452z" fill="#d09080" fill-rule="evenodd"/></g><g><path d="m269.123 228.282c-.946 0-1.909-.177-2.84-.553-3.9-1.571-5.788-6.005-4.217-9.904 9.593-23.815 4.659-56.593-13.197-87.684-2.093-3.645-.835-8.297 2.81-10.391 3.646-2.092 8.298-.834 10.391 2.81 20.161 35.105 25.439 72.844 14.117 100.952-1.196 2.968-4.05 4.77-7.064 4.77z" fill="#ce775f"/></g><g><path d="m84.628 301.337c-.235 0-.471-.01-.709-.033-4.186-.386-7.266-4.092-6.88-8.278 3.65-39.532 58.265-59.107 68.917-61.503 49.799-18.2 68.647-32.066 54.476-95.137-.922-4.102 1.656-8.173 5.757-9.095 4.107-.924 8.174 1.658 9.095 5.757 7.999 35.599 6.169 59.282-5.932 76.79-11.371 16.452-30.888 26.039-58.694 36.175-.405.148-.823.261-1.247.338-9.475 1.72-54.596 19.728-57.214 48.075-.363 3.946-3.681 6.911-7.569 6.911z" fill="#ce775f"/></g><g><path d="m211.631 451.155c-10.672 0-21.343-1.942-29.658-5.825-3.81-1.779-5.455-6.308-3.677-10.117 1.779-3.81 6.307-5.457 10.117-3.677 12.586 5.877 33.85 5.877 46.434 0 3.81-1.776 8.339-.133 10.118 3.676 1.778 3.81.133 8.339-3.676 10.118-8.316 3.883-18.988 5.825-29.658 5.825z" fill="#fe93d3"/></g><g><path d="m275.673 339.465c-8.617 0-17.238-.916-23.959-2.746-4.056-1.104-6.449-5.288-5.344-9.344 1.104-4.057 5.29-6.444 9.344-5.344 10.828 2.949 29.096 2.948 39.892.001 4.051-1.107 8.241 1.281 9.348 5.338 1.107 4.055-1.283 8.241-5.338 9.348-6.709 1.832-15.325 2.747-23.943 2.747z" fill="#365e7d"/></g><g><path clip-rule="evenodd" d="m367.448 111.582c-36.673-42.991-91.274-70.453-151.928-70.453-44.803 0-86.302 14.974-119.7 40.096 25.121-11.464 53.021-17.84 82.325-17.84 60.654 0 115.255 27.433 151.928 70.424 7.282 10.002 13.336 19.478 18.366 28.485l12.663-15.646c-5.644-3.012-7.779-10.119-4.767-15.764l8.715-16.261c.643-1.169 1.462-2.193 2.398-3.041z" fill="#ce775f" fill-rule="evenodd"/></g><g><path clip-rule="evenodd" d="m377.655 280.886v47.758c0 64.253-4.474 115.375-38.896 147.077 68.843-25.824 76.271-86.743 76.271-169.333v-47.729c-.38-.146-.76-.351-1.17-.556l-23.221-12.459-17.518-9.388c2.106 15.355 2.837 29.919 4.534 44.63z" fill="#ce775f" fill-rule="evenodd"/></g><g><path d="m421.779 139.433c-1.214 0-2.446-.291-3.591-.906-3.705-1.987-5.097-6.601-3.11-10.305l66.62-124.207c1.987-3.705 6.603-5.097 10.305-3.11 3.705 1.987 5.097 6.601 3.11 10.305l-66.62 124.207c-1.373 2.56-4 4.016-6.714 4.016z" fill="#365e7d"/></g><g><path clip-rule="evenodd" d="m443.018 190.573-19.333 61.886c-1.34 4.333-3.684 8.16-8.657 6.201-.375-.142-.761-.355-1.167-.558l-18.531-9.936-4.689-2.517-9.022-4.841-14.167-7.591-13.072-7.013-10.149-5.45-3.562-1.908-19.658-10.524c-5.764-3.095-3.836-7.541-.761-11.316l40.848-50.358 40.422 21.667.558.294z" fill="#ffe07d" fill-rule="evenodd"/></g><g><path clip-rule="evenodd" d="m421.785 131.82-40.943-21.964c-4.474-2.398-9.856-1.55-13.394 1.725-.936.848-1.755 1.872-2.398 3.042l-8.715 16.261c-3.012 5.644-.877 12.751 4.767 15.764l40.417 21.671.556.292 40.943 21.964c5.644 3.042 12.751.907 15.792-4.767l8.715-16.231c3.012-5.644.877-12.751-4.767-15.793z" fill="#dddaec" fill-rule="evenodd"/></g><g><path clip-rule="evenodd" d="m423.686 252.459 19.331-61.884-20.472-10.967-9.709 31.059-1.959 6.259-7.662 24.566c-1.433 4.65-4.065 8.715-9.826 5.615l20.471 10.996c.409.205.79.409 1.17.556 4.971 1.96 7.311-1.871 8.656-6.2z" fill="#ffd064" fill-rule="evenodd"/></g><g><path clip-rule="evenodd" d="m467.525 169.576c3.012-5.674.877-12.751-4.767-15.793l-20.413-10.938c5.586 3.042 7.721 10.119 4.679 15.734l-8.715 16.261c-3.012 5.644-10.09 7.779-15.705 4.796l20.413 10.938c5.644 3.042 12.751.907 15.792-4.767z" fill="#d0cee7" fill-rule="evenodd"/></g><g><path d="m404.504 216.665-9.174 31.501-4.689-2.517-9.022-4.841 8.261-28.365c1.167-4.039 5.389-6.363 9.418-5.196 4.039 1.167 6.373 5.379 5.206 9.418z" fill="#ffbc85"/></g><g><path d="m373.48 203.664-19.1 22.54-10.149-5.45-3.562-1.908 21.211-25.046c2.72-3.197 7.53-3.593 10.727-.863 3.207 2.72 3.592 7.52.873 10.727z" fill="#ffbc85"/></g></g></svg>