<svg id="Capa_1" enable-background="new 0 0 512 512" height="512" viewBox="0 0 512 512" width="512" xmlns="http://www.w3.org/2000/svg"><g><g><path d="m10 10v472h492c0-57.587 0-405.863 0-472-43.105 0-477.583 0-492 0z" fill="#c1b0b5"/><path d="m416 116c-6.791 0-69.231 0-80 0v166h80v-86h40v-40c0-22.09-17.91-40-40-40z" fill="#ff7b79"/><path d="m336 116c-6.791 0-69.231 0-80 0v166h80v-86h40v-40c0-22.09-17.91-40-40-40z" fill="#b3f1ff"/><path d="m416 402c11.05 0 20 8.95 20 20s-8.95 20-20 20c-38.484 0-128.632 0-160 0-22.079 0-40-17.919-40-40 0-22.09 17.91-40 40-40h160c11.04 0 20 8.96 20 20 0 11.05-8.95 20-20 20z" fill="#b3f1ff"/><g fill="#ffda8f"><path d="m256 196v86h-100v-166h100c22.09 0 40 17.91 40 40v40z"/><path d="m502 10v40c-48.023 0-335.166 0-346 0v-40z"/><path d="m502 442v40c-13.038 0-334.03 0-346 0v-40z"/></g></g><g><path d="m126 282v-46c0-5.523-4.477-10-10-10s-10 4.477-10 10v46c0 5.523 4.477 10 10 10s10-4.477 10-10z"/><circle cx="10" cy="246" r="10"/><path d="m502 0h-492c-5.523 0-10 4.477-10 10v191c0 5.523 4.477 10 10 10s10-4.477 10-10v-181h126v452h-126v-181c0-5.523-4.477-10-10-10s-10 4.477-10 10v191c0 5.523 4.477 10 10 10h30v10c0 5.523 4.477 10 10 10s10-4.477 10-10v-10h386v10c0 5.523 4.477 10 10 10s10-4.477 10-10v-10h36c5.523 0 10-4.477 10-10v-472c0-5.523-4.477-10-10-10zm-246 432c-16.569 0-30-13.429-30-30 0-16.542 13.458-30 30-30h160c5.521 0 10 4.478 10 10 0 5.514-4.486 10-10 10h-160c-5.523 0-10 4.477-10 10s4.477 10 10 10h160c5.514 0 10 4.486 10 10s-4.486 10-10 10zm182.337-30c4.761-5.312 7.663-12.322 7.663-20 0-16.577-13.425-30-30-30h-160c-27.57 0-50 22.43-50 50 0 10.965 3.516 21.39 10.004 30h-50.004v-100h326v100h-47.72c1.11-3.13 1.72-6.494 1.72-10 0-7.678-2.902-14.688-7.663-20zm-172.337-342v46c-21.427 0-37.338 0-60 0v-46zm80 0v46c-21.427 0-37.338 0-60 0v-46zm146 0v252h-326v-20h250c5.523 0 10-4.477 10-10v-76h30c5.523 0 10-4.477 10-10v-40c0-27.57-22.43-50-50-50h-50v-46zm-236 66c16.542 0 30 13.458 30 30v30h-20v-30c0-5.523-4.477-10-10-10s-10 4.477-10 10v116h-80v-146zm80 0c16.542 0 30 13.458 30 30v30h-20v-30c0-5.523-4.477-10-10-10s-10 4.477-10 10v116h-60v-66h30c5.523 0 10-4.477 10-10v-40c0-11.247-3.735-21.637-10.027-30zm80 20c-5.523 0-10 4.477-10 10v116h-60v-66h30c5.523 0 10-4.477 10-10v-40c0-11.247-3.735-21.637-10.027-30h40.027c16.542 0 30 13.458 30 30v30h-20v-30c0-5.523-4.477-10-10-10zm-230-40h-20v-46h20zm306-86v20h-326v-20zm-326 452v-20h326v20z"/></g></g></svg>