<svg id="Gradient" height="512" viewBox="0 0 64 64" width="512" xmlns="http://www.w3.org/2000/svg" xmlns:xlink="http://www.w3.org/1999/xlink"><linearGradient id="lg1"><stop offset="0" stop-color="#808080"/><stop offset=".0307" stop-color="#9a8a67"/><stop offset=".0783" stop-color="#bc9746"/><stop offset=".1268" stop-color="#d7a22c"/><stop offset=".1762" stop-color="#eaa91a"/><stop offset=".2269" stop-color="#f5ae0f"/><stop offset=".2809" stop-color="#f9af0b"/><stop offset=".6238" stop-color="#4d4d4d"/><stop offset=".8541" stop-color="#f50"/></linearGradient><linearGradient id="SVGID_1_" gradientUnits="userSpaceOnUse" x1="6.048" x2="51.244" xlink:href="#lg1" y1="1.321" y2="46.517"/><linearGradient id="SVGID_2_" gradientUnits="userSpaceOnUse" x1="-2.565" x2="42.63" xlink:href="#lg1" y1="9.935" y2="55.131"/><linearGradient id="SVGID_3_" gradientUnits="userSpaceOnUse" x1="12.436" x2="57.631" xlink:href="#lg1" y1="-5.066" y2="40.13"/><path d="m63.39 21.05c-.378-.124-.789-.015-1.054.277-.038.042-3.87 4.207-8.324 4.335-1.976.046-3.875-.741-5.541-2.376-2.145-2.104-4.605-3.125-7.122-2.948-4.263.295-7.684 2.482-9.311 5.832-1.626-3.35-5.047-5.537-9.311-5.832-2.509-.169-4.978.845-7.121 2.948-1.664 1.633-3.521 2.446-5.533 2.376-4.439-.123-8.295-4.293-8.334-4.336-.265-.291-.678-.4-1.053-.275-.375.124-.642.456-.682.848-.039.39-.899 9.624 4.69 15.805 3.178 3.514 7.771 5.296 13.651 5.296 4.291 0 7.372-1.543 9.201-2.837 2.059-1.456 3.577-3.263 4.492-5.228.915 1.965 2.433 3.771 4.492 5.228h-.001c1.83 1.294 4.911 2.837 9.202 2.837 5.88 0 10.473-1.782 13.649-5.295 5.59-6.181 4.729-15.415 4.69-15.805-.039-.393-.305-.726-.68-.85zm-36.998 17.48c-1.593 1.127-4.282 2.47-8.047 2.47-5.286 0-9.376-1.557-12.158-4.627-3.472-3.832-4.147-9.193-4.233-12.134 1.753 1.428 4.697 3.326 8.053 3.422 2.586.092 4.931-.918 7-2.948 1.723-1.691 3.655-2.518 5.582-2.381 4.066.281 7.192 2.595 8.157 6.037.181.645.273 1.298.289 1.951-.002.078.002.155.002.232-.015 2.955-1.673 5.875-4.645 7.978zm31.498-2.157c-2.783 3.07-6.872 4.627-12.159 4.627-3.766 0-6.454-1.343-8.046-2.47-.001 0-.001 0-.001 0-2.973-2.103-4.63-5.023-4.646-7.977 0-.078.004-.155.002-.232.016-.652.108-1.305.289-1.951.965-3.442 4.091-5.756 8.157-6.037.135-.009.271-.014.405-.014 1.792 0 3.574.822 5.178 2.395 2.069 2.03 4.439 3.042 6.999 2.948 3.355-.096 6.3-1.994 8.053-3.422-.085 2.94-.76 8.301-4.231 12.133z" fill="url(#SVGID_1_)"/><path d="m16.384 29.212c-5.211 4.079-8.57 1.174-8.705 1.053-.405-.374-1.038-.352-1.413.057-.375.406-.35 1.038.056 1.413.029.026 1.82 1.631 4.743 1.631 1.803 0 4.036-.61 6.552-2.578 5.396-4.222 8.645-2.083 8.802-1.975.444.32 1.064.219 1.39-.223.325-.446.229-1.071-.218-1.397-.182-.133-4.535-3.199-11.207 2.019z" fill="url(#SVGID_2_)"/><path d="m47.616 29.212c-6.67-5.219-11.025-2.153-11.206-2.02-.442.323-.537.938-.22 1.384.317.447.941.55 1.391.237.135-.094 3.387-2.264 8.803 1.974 2.516 1.968 4.748 2.579 6.552 2.578 2.922 0 4.714-1.604 4.743-1.631.403-.373.428-.999.059-1.405-.37-.407-1.001-.436-1.41-.07-.141.126-3.499 3.031-8.712-1.047z" fill="url(#SVGID_3_)"/></svg>