<?xml version="1.0" encoding="iso-8859-1"?>
<!-- Generator: Adobe Illustrator 19.0.0, SVG Export Plug-In . SVG Version: 6.00 Build 0)  -->
<svg version="1.1" id="Capa_1" xmlns="http://www.w3.org/2000/svg" xmlns:xlink="http://www.w3.org/1999/xlink" x="0px" y="0px"
	 viewBox="0 0 512.001 512.001" style="enable-background:new 0 0 512.001 512.001;" xml:space="preserve">
<path style="fill:#996123;" d="M496.031,205.919c-0.551-0.784-0.866-1.705-0.875-2.664c9.418-83.274-49.564-134.283-77.013-153.248
	c-4.2-2.902-9.701,1.187-8.133,6.046c1.666,5.161,3.216,10.63,4.656,16.283c1.183,4.644-4.142,8.179-7.947,5.265
	c-24.414-18.698-88.973-57.752-204.548-60.081c-3.176-0.064-4.538,4.011-1.957,5.863c4.122,2.957,9.493,7.043,15.736,12.326
	c3.248,2.748,1.781,8.036-2.418,8.722C123.411,59.153,96.842,124.882,6.207,95.027c-3.11-1.024-6.29,1.343-6.204,4.615
	c0.598,22.76,7.185,101.419,79.878,111.691c114.008,16.11,40.869,56.851,89.968,112.261c2.558,2.886,7.627,6.367,11.228,7.748
	c20.196,7.743,27.157,18.316,35.807,57.988c1.067,4.893,8.002,5.008,9.216,0.149c11.781-47.125,36.228-97.7,84.466-90.483
	c39.07,5.236,60.006,48.524,40.679,82.313c-0.393,3.045-0.734,4.824-0.734,4.824s-5.767,39.485,31.943,77.196
	c11.487,11.487,18.772,20.996,23.352,28.669c0.844,1.414,2.321,2.411,3.966,2.479c2.49,0.102,4.606-1.735,4.893-4.187
	c3.222-27.497,11.479-68.878,32.561-89.96C480.287,367.27,540.937,269.833,496.031,205.919z"/>
<g>
	<path style="fill:#89521A;" d="M198.796,301.958c-49.099-55.409,24.041-96.15-89.968-112.261
		c-55.919-7.902-72.718-56.268-77.767-88.53c-7.755-1.229-15.995-3.223-24.855-6.141c-3.11-1.024-6.29,1.342-6.204,4.615
		c0.599,22.761,7.186,101.42,79.879,111.692c114.008,16.11,40.869,56.851,89.968,112.261c2.558,2.887,7.627,6.367,11.228,7.748
		c20.196,7.743,27.157,18.316,35.807,57.988c1.067,4.893,8.002,5.008,9.216,0.149c3.207-12.83,7.921-27.99,14.642-42.228
		C228.589,305.958,211.347,316.123,198.796,301.958z"/>
	<path style="fill:#89521A;" d="M409.793,440.055c-15.171-20.006-22.691-40.572-24.734-61.464c-0.217-2.214-0.031-4.455,0.607-6.586
		c11.426-38.156-3.583-63.616-3.583-63.616l0,0c-9.128-19.073-25.276-25.679-25.391-25.762c-0.428-0.212-0.859-0.415-1.292-0.616
		c-60.66-29.072-103.949,46.33-103.961,46.35c38.532-56.206,107.097-27.012,107.097,25.52c0,9.987-2.665,19.341-7.291,27.429
		c-0.393,3.045-0.734,4.824-0.734,4.824s-5.768,39.485,31.943,77.196c11.483,11.483,18.767,20.989,23.347,28.66
		c0.745,1.248,1.957,2.198,3.392,2.429c2.733,0.439,5.163-1.488,5.473-4.128c1.298-11.082,3.417-24.42,6.861-37.775
		C416.167,446.349,411.896,442.232,409.793,440.055z"/>
</g>
<g>
</g>
<g>
</g>
<g>
</g>
<g>
</g>
<g>
</g>
<g>
</g>
<g>
</g>
<g>
</g>
<g>
</g>
<g>
</g>
<g>
</g>
<g>
</g>
<g>
</g>
<g>
</g>
<g>
</g>
</svg>
